<svg id="Layer_1" data-name="Layer 1" xmlns="http://www.w3.org/2000/svg" viewBox="0 0 214.91 48.2"><title>logo</title><path d="M11.61,48.2A27.8,27.8,0,0,1,.47,46V37.14H4.74V43A21.16,21.16,0,0,0,12,44a10.27,10.27,0,0,0,6.76-2,6.82,6.82,0,0,0,2.41-5.5,6.71,6.71,0,0,0-.68-3.12,7.52,7.52,0,0,0-1.81-2.29,13.3,13.3,0,0,0-2.89-1.82c-1.16-.55-2.47-1.11-4-1.69S9,26.48,7.62,25.88a17,17,0,0,1-3.79-2.26,10.25,10.25,0,0,1-2.76-3.39A10.54,10.54,0,0,1,0,15.33,10.15,10.15,0,0,1,3.79,7.07Q7.59,4,14.06,4A23,23,0,0,1,24.49,6.32V15H20.23V9.32a17,17,0,0,0-6.56-1.18q-4.35,0-6.56,2a6.47,6.47,0,0,0-2.21,4.9,6,6,0,0,0,.67,3,7.09,7.09,0,0,0,1.9,2.18,12.45,12.45,0,0,0,3,1.66l4,1.58q2.2.87,4.31,1.85a16.8,16.8,0,0,1,3.71,2.37,10.62,10.62,0,0,1,2.61,3.4,11.68,11.68,0,0,1,1,5.1,10.82,10.82,0,0,1-3.91,8.73Q18.26,48.19,11.61,48.2Z" style="fill:#414042"/><path d="M34,4H30V0h8.7V20.23h.07a13.19,13.19,0,0,1,9.72-4.43q4,0,5.77,2.25a9.93,9.93,0,0,1,1.82,6.36V43.46h3.95v3.95H48.2V43.46h3.16V25.05q0-3.16-1.11-4.23a4.26,4.26,0,0,0-3.08-1.07q-4.59,0-8.45,4.51v19.2h3.16v3.95H30V43.46H34Z" style="fill:#414042"/><path d="M66.37,18.88A22.42,22.42,0,0,1,77.51,15.8c3.27,0,5.78.75,7.55,2.25s2.64,3.89,2.64,7.15V43.46h4v3.95H83.44l-.24-3.56L83,43.77a11.83,11.83,0,0,1-9.32,4.43,8.8,8.8,0,0,1-6.52-2.41,8.3,8.3,0,0,1-2.41-6.13,8,8,0,0,1,4.31-7.42q4.31-2.46,12.52-2.45H83V25.13c0-1.95-.46-3.34-1.38-4.15S79.12,19.75,77,19.75A14.85,14.85,0,0,0,70.48,21v4.26H66.37Zm14.7,14.31a20.2,20.2,0,0,0-8.38,1.38,4.92,4.92,0,0,0-2.92,4.86,4.43,4.43,0,0,0,1.42,3.67,5.58,5.58,0,0,0,3.63,1.15A10.47,10.47,0,0,0,83,40.38V33.19Z" style="fill:#414042"/><path d="M94.81,43.46h4V20.54h-4V16.59h8.46L103.5,21h.16A11,11,0,0,1,107,17.3a7.78,7.78,0,0,1,4.35-1.18,7.48,7.48,0,0,1,1.66.16v5a13.13,13.13,0,0,0-2.45-.23,7.34,7.34,0,0,0-4,1.06,9.39,9.39,0,0,0-3,3.44V43.46h4.75v3.95H94.81Z" style="fill:#414042"/><path d="M139.06,41.48v4.27a17.21,17.21,0,0,1-9.24,2.45q-6.25,0-9.76-4.19t-3.52-11.69q0-7.76,3.71-12.13a11.72,11.72,0,0,1,9.33-4.39A9,9,0,0,1,137,19.44q2.84,3.63,2.84,10.35v2.45H121.44c.1,3.68.83,6.55,2.17,8.61s3.49,3.13,6.44,3.24A16.47,16.47,0,0,0,139.06,41.48Zm-3.95-13q0-4.5-1.66-6.59a5.61,5.61,0,0,0-4.66-2.1,6.36,6.36,0,0,0-4.9,2.18q-2,2.17-2.37,6.51Z" style="fill:#414042"/><path d="M144.59,43.46h4.74V8.69h-4.74V4.74h14.14q10.28,0,15.17,5.1T178.8,25q0,11.06-5.57,16.75t-15.92,5.69H144.59Zm9.48,0h3.79q7.66,0,11.82-4.35t4.14-13.67q0-8.69-3.79-12.72t-12.17-4h-3.79Z" style="fill:#ed1c24"/><path d="M206.77,24.34a10.05,10.05,0,0,1,6.17,3.87,11.49,11.49,0,0,1,2,6.71,11.5,11.5,0,0,1-3.83,9.17q-3.84,3.31-11.81,3.32H184.89V43.46h4.74V8.69h-4.74V4.74h14.46q7.11,0,10.5,2.61a8.88,8.88,0,0,1,3.4,7.5,10.35,10.35,0,0,1-1.54,5.73,9.17,9.17,0,0,1-4.94,3.6Zm-7.35-1.43q8.85,0,8.85-7.34c0-2.48-.73-4.24-2.21-5.3s-3.82-1.58-7-1.58h-4.66V22.91Zm0,20.55q5.29,0,7.87-1.94t2.56-6.6q0-4.1-2.41-6.08t-7.62-2h-5.45v16.6Z" style="fill:#ed1c24"/></svg>